HIERARCHY
ROOT RootJoint
{
    OFFSET   0.000000   0.000000   0.000000
    CHANNELS 6 Xposition Yposition Zposition Xrotation Yrotation Zrotation
    JOINT pelvis_lowerback
    {
        OFFSET   0.000000   0.093605   0.000000
        CHANNELS 3 Xrotation Yrotation Zrotation
        JOINT lowerback_torso
        {
            OFFSET   0.000000   0.100000   0.000000
            CHANNELS 3 Xrotation Yrotation Zrotation
            JOINT torso_head
            {
                OFFSET   0.000000   0.282350   0.000000
                CHANNELS 3 Xrotation Yrotation Zrotation
                End Site
                {
                    OFFSET   0.000000   0.192650   0.000000
                }
            }
            JOINT rTorso_Clavicle
            {
                OFFSET  -0.001000   0.157500   0.000000
                CHANNELS 3 Xrotation Yrotation Zrotation
                JOINT rShoulder
                {
                    OFFSET  -0.117647   0.000000   0.000000
                    CHANNELS 3 Xrotation Yrotation Zrotation
                    JOINT rElbow
                    {
                        OFFSET  -0.245000   0.000000   0.000000
                        CHANNELS 3 Xrotation Yrotation Zrotation
                        JOINT rWrist
                        {
                            OFFSET  -0.240000   0.000000   0.000000
                            CHANNELS 3 Xrotation Yrotation Zrotation
                            End Site
                            {
                                OFFSET  -0.116353  -0.002500   0.000000
                            }
                        }
                    }
                }
            }
            JOINT lTorso_Clavicle
            {
                OFFSET   0.001000   0.157500   0.000000
                CHANNELS 3 Xrotation Yrotation Zrotation
                JOINT lShoulder
                {
                    OFFSET   0.117647   0.000000   0.000000
                    CHANNELS 3 Xrotation Yrotation Zrotation
                    JOINT lElbow
                    {
                        OFFSET   0.245000   0.000000   0.000000
                        CHANNELS 3 Xrotation Yrotation Zrotation
                        JOINT lWrist
                        {
                            OFFSET   0.240000   0.000000   0.000000
                            CHANNELS 3 Xrotation Yrotation Zrotation
                            End Site
                            {
                                OFFSET   0.116353  -0.002500   0.000000
                            }
                        }
                    }
                }
            }
        }
    }
    JOINT rHip
    {
        OFFSET  -0.100000  -0.051395   0.000000
        CHANNELS 3 Xrotation Yrotation Zrotation
        JOINT rKnee
        {
            OFFSET   0.000000  -0.410000   0.000000
            CHANNELS 3 Xrotation Yrotation Zrotation
            JOINT rAnkle
            {
                OFFSET   0.000000  -0.390000   0.000000
                CHANNELS 3 Xrotation Yrotation Zrotation
                JOINT rToeJoint
                {
                    OFFSET   0.000000  -0.050000   0.130000
                    CHANNELS 3 Xrotation Yrotation Zrotation
                    End Site
                    {
                        OFFSET  -0.010000   0.002000   0.060000
                    }
                }
            }
        }
    }
    JOINT lHip
    {
        OFFSET   0.100000  -0.051395   0.000000
        CHANNELS 3 Xrotation Yrotation Zrotation
        JOINT lKnee
        {
            OFFSET   0.000000  -0.410000   0.000000
            CHANNELS 3 Xrotation Yrotation Zrotation
            JOINT lAnkle
            {
                OFFSET   0.000000  -0.390000   0.000000
                CHANNELS 3 Xrotation Yrotation Zrotation
                JOINT lToeJoint
                {
                    OFFSET   0.000000  -0.050000   0.130000
                    CHANNELS 3 Xrotation Yrotation Zrotation
                    End Site
                    {
                        OFFSET   0.010000   0.002000   0.060000
                    }
                }
            }
        }
    }
}
MOTION
Frames: 12
Frame Time:   0.008333
 -2.376719   0.925631   3.975860   0.000000   0.000000   0.000000   0.000000   0.000000   0.000000   0.000000   0.000000   0.000000   0.000000   0.000000   0.000000   0.000000   0.000000   0.000000   0.000000   0.000000   0.000000   0.000000   0.000000   0.000000   0.000000   0.000000   0.000000   0.000000   0.000000   0.000000   0.000000   0.000000   0.000000   0.000000   0.000000   0.000000   0.000000   0.000000   0.000000   0.000000   0.000000   0.000000   0.000000   0.000000   0.000000   0.000000   0.000000   0.000000   0.000000   0.000000   0.000000   0.000000   0.000000   0.000000   0.000000   0.000000   0.000000   0.000000   0.000000   0.000000   0.000000   0.000000   0.000000
 -2.376087   0.925763   3.976096  -0.743295   0.904902  -0.099895   0.823471  -0.076504   0.196319   0.178129  -0.111454   0.202821   0.147078   1.034188  -0.503470   0.296965  -1.026600  -0.526277   0.524953   0.129608   2.410107   0.017700   0.932919  -0.008957   0.184181  -0.411409  -2.318652  -0.075110  -0.306345   0.318661   0.875070  -0.243485  -2.560608   0.019161  -1.112969   0.010476   0.242030   0.441713   1.718786   1.042804   0.125814   0.001473   0.663201   0.000684   0.005952   0.322087  -0.379806   0.190471   0.547644  -0.000325   0.003093   0.089710  -0.841280   0.027798   1.042046   0.000677   0.000567   1.453164  -0.973645  -0.461699   0.691126   0.003296  -0.005473
 -2.375085   0.927382   3.976014  -1.493828   2.233545  -0.018701   1.634255  -0.209440   0.330104   0.446400  -0.339969   0.410200   0.345059   2.056076  -0.995717   0.587941  -2.106102  -0.379963   1.036751   0.219946   5.309890   0.040398   1.807731  -0.016104   0.390133  -0.674007  -4.029582  -0.147404  -0.727502   0.023314   1.723771  -0.651888  -5.582766   0.044681  -2.224192   0.019378   0.524126   0.430254   2.769204   2.148164   0.228260  -0.279556   1.196902   0.001895   0.011407   0.473335  -0.774899   0.315632  -1.250216  -0.002909  -0.013673   0.146276  -1.505432  -0.075696   2.047972   0.000983   0.006257   2.044161  -1.732849  -0.656787  -1.427084  -0.002362  -0.002644
 -2.373937   0.929469   3.975727  -2.231814   3.655711   0.033095   2.427457  -0.317596   0.580651   0.737396  -0.576290   0.676419   0.551310   3.015440  -1.458204   0.875516  -3.113012   0.143692   1.533129   0.337265   8.506152   0.062307   2.621982  -0.021489   0.582952  -0.906348  -5.035567  -0.228371  -1.172832  -0.625246   2.535803  -1.145139  -8.887771   0.069168  -3.281569   0.025671   0.808528   0.238873   3.158126   3.245703   0.339118  -0.496951   1.780575   0.003185   0.016887   0.642753  -1.137488   0.497177  -2.408785  -0.003242  -0.022716   0.112488  -2.205676  -0.125340   3.011224   0.001275   0.011037   2.955746  -2.553871  -0.952999  -3.715659  -0.010044  -0.000808
 -2.372669   0.931591   3.975350  -2.951834   5.101526   0.084838   3.186783  -0.397303   0.900766   1.027968  -0.790038   0.996072   0.756336   3.910779  -1.887786   1.161867  -4.028345   0.897876   2.013013   0.501362  11.896396   0.081355   3.385677  -0.025504   0.766058  -1.100930  -5.543254  -0.318892  -1.609296  -1.467678   3.309908  -1.697070 -12.364475   0.089714  -4.276524   0.029409   1.086283  -0.019609   3.115697   4.347016   0.466638  -0.665786   2.381210   0.004384   0.021678   0.812868  -1.450210   0.675152  -3.298029  -0.003186  -0.027878  -0.004175  -2.892800  -0.179999   3.916880   0.001730   0.014772   3.937309  -3.361911  -1.256514  -5.553378  -0.015525  -0.000950
 -2.371313   0.933530   3.974930  -3.653651   6.544345   0.161877   3.906003  -0.443904   1.260389   1.306169  -0.969605   1.352709   0.956272   4.745363  -2.288122   1.445379  -4.853954   1.789518   2.473399   0.715528  15.417577   0.096784   4.103719  -0.028486   0.943073  -1.252433  -5.719909  -0.418306  -2.021396  -2.406756   4.045299  -2.293340 -15.946131   0.105420  -5.207794   0.030934   1.352333  -0.296040   2.813836   5.445265   0.596386  -0.803128   2.968082   0.005353   0.025298   0.971023  -1.728222   0.846908  -4.122648  -0.003011  -0.031519  -0.194334  -3.548390  -0.274028   4.747117   0.002289   0.017446   4.901337  -4.138059  -1.542527  -6.764488  -0.017607  -0.001824
 -2.369949   0.935117   3.974488  -4.346134   7.964531   0.273756   4.587024  -0.450890   1.641279   1.570767  -1.107265   1.718207   1.148696   5.523270  -2.657106   1.723184  -5.594809   2.762297   2.910603   0.979524  19.032806   0.108464   4.779578  -0.030708   1.115743  -1.361422  -5.669986  -0.520612  -2.399389  -3.442472   4.697996  -2.894745 -19.411248   0.115577  -6.077661   0.030299   1.604941  -0.573491   2.261150   6.527592   0.717724  -0.912780   3.521865   0.006014   0.027585   1.108154  -1.984165   1.010183  -5.011122  -0.002782  -0.035059  -0.445739  -4.169837  -0.414423   5.503013   0.002833   0.019127   5.832527  -4.881123  -1.809367  -7.540415  -0.017465  -0.002487
 -2.368632   0.935776   3.973593  -4.739495   9.044528   0.464147   5.045536  -0.219203   1.872235   1.719285  -1.192782   2.104706   1.351571   6.229937  -3.045450   2.064736  -6.140996   3.455679   3.332039   1.289992  22.376276   0.102645   5.166530  -0.029543   1.223747  -1.210945  -4.706184  -0.520603  -2.649979  -3.919880   5.340206  -3.665487 -23.147500   0.115760  -6.764082   0.028829   1.735111  -0.901117   1.261521   7.196522   0.889669  -1.140874   4.140578   0.006720   0.028758   0.339768  -2.133561   0.893342  -4.078727   0.000145  -0.018838  -1.100098  -4.466294  -0.750825   6.562965   0.004402   0.022257   6.484371  -5.416395  -1.658799  -8.490333  -0.015151  -0.004274
 -2.367477   0.935703   3.972557  -5.077703  10.012848   0.684702   5.482317   0.047361   2.068803   1.847179  -1.219348   2.452183   1.537916   6.886914  -3.408642   2.377348  -6.615570   4.018585   3.701264   1.617572  25.435870   0.095526   5.529025  -0.028330   1.324549  -1.066709  -3.740225  -0.517338  -2.858775  -4.306525   5.899691  -4.402760 -26.607221   0.112389  -7.397531   0.026598   1.851842  -1.178568   0.211814   7.820156   1.040319  -1.371270   4.690665   0.006937   0.028345  -0.386113  -2.273052   0.782018  -3.251268   0.002240  -0.007807  -1.758125  -4.703555  -1.123128   7.586781   0.005640   0.023943   7.043529  -5.877951  -1.497131  -9.965588  -0.013696  -0.006977
 -2.366528   0.935038   3.971351  -5.378974  10.914614   0.927191   5.909523   0.330206   2.235068   1.971977  -1.207097   2.761542   1.714538   7.498799  -3.747818   2.660784  -7.037374   4.490607   4.022214   1.953040  28.249605   0.087976   5.872971  -0.027150   1.420586  -0.909625  -2.892701  -0.513238  -3.035661  -4.632315   6.384976  -5.104452 -29.807823   0.106852  -7.982926   0.023964   1.956599  -1.408657  -0.757186   8.367144   1.181053  -1.571252   5.107253   0.006550   0.026467  -1.113668  -2.396095   0.686881  -3.150878   0.002002  -0.005417  -2.385150  -4.919425  -1.507296   8.551025   0.006429   0.024471   7.520740  -6.307555  -1.340431 -11.870831  -0.012702  -0.009746
 -2.365758   0.933904   3.969972  -5.657132  11.753228   1.184756   6.333770   0.628114   2.380208   2.102261  -1.162293   3.035819   1.884521   8.068938  -4.065942   2.916427  -7.414345   4.889875   4.299768   2.289698  30.842991   0.080362   6.198720  -0.025977   1.512139  -0.740066  -2.158104  -0.506532  -3.184607  -4.914905   6.806259  -5.769224 -32.777132   0.100071  -8.524011   0.021175   2.051881  -1.596794  -1.642727   8.818026   1.279848  -1.774200   5.432386   0.005971   0.023845  -1.823291  -2.547577   0.586616  -3.428108   0.001056  -0.006317  -2.955762  -5.117719  -1.891564   9.462314   0.006845   0.024184   7.920830  -6.709105  -1.189702 -14.197896  -0.011906  -0.012369
 -2.365112   0.933139   3.968233  -5.901515  12.593584   1.582233   6.766299   0.909572   2.416872   2.237083  -1.113139   3.240147   2.047466   8.599244  -4.369949   3.145878  -7.752374   5.282006   4.537605   2.623910  33.259186   0.073070   6.505642  -0.024869   1.597979  -0.567648  -1.523223  -0.502431  -3.323308  -5.204179   7.166494  -6.405821 -35.544479   0.092950  -9.025543   0.018435   2.139812  -1.750169  -2.438138   9.158919   1.343688  -2.122089   5.711161   0.005432   0.021335  -2.466660  -2.720550   0.476087  -3.462883   0.000771  -0.005294  -3.452206  -5.301548  -2.397697  10.388306   0.007114   0.024070   7.952628  -7.077619  -0.984050 -14.453004  -0.009487  -0.010426
